<svg width="14" height="13" viewBox="0 0 14 13" fill="none" xmlns="http://www.w3.org/2000/svg">
<path fill-rule="evenodd" clip-rule="evenodd" d="M3.5 0C3.63261 0 3.75979 0.0526784 3.85355 0.146447C3.94732 0.240215 4 0.367392 4 0.5V1.5H10V0.5C10 0.367392 10.0527 0.240215 10.1464 0.146447C10.2402 0.0526784 10.3674 0 10.5 0C10.6326 0 10.7598 0.0526784 10.8536 0.146447C10.9473 0.240215 11 0.367392 11 0.5V1.5H11.5C12.0304 1.5 12.5391 1.71071 12.9142 2.08579C13.2893 2.46086 13.5 2.96957 13.5 3.5V11C13.5 11.5304 13.2893 12.0391 12.9142 12.4142C12.5391 12.7893 12.0304 13 11.5 13H2.5C1.96957 13 1.46086 12.7893 1.08579 12.4142C0.710714 12.0391 0.5 11.5304 0.5 11V3.5C0.5 2.96957 0.710714 2.46086 1.08579 2.08579C1.46086 1.71071 1.96957 1.5 2.5 1.5H3V0.5C3 0.367392 3.05268 0.240215 3.14645 0.146447C3.24021 0.0526784 3.36739 0 3.5 0ZM12.5 6C12.5 5.73478 12.3946 5.48043 12.2071 5.29289C12.0196 5.10536 11.7652 5 11.5 5H2.5C2.23478 5 1.98043 5.10536 1.79289 5.29289C1.60536 5.48043 1.5 5.73478 1.5 6V11C1.5 11.2652 1.60536 11.5196 1.79289 11.7071C1.98043 11.8946 2.23478 12 2.5 12H11.5C11.7652 12 12.0196 11.8946 12.2071 11.7071C12.3946 11.5196 12.5 11.2652 12.5 11V6Z" fill="black"/>
</svg>
