<svg width="18" height="18" viewBox="0 0 18 18" fill="none" xmlns="http://www.w3.org/2000/svg">
<path fill-rule="evenodd" clip-rule="evenodd" d="M0.875 9C0.875 4.5125 4.5125 0.875 9 0.875C13.4875 0.875 17.125 4.5125 17.125 9C17.125 13.4875 13.4875 17.125 9 17.125C4.5125 17.125 0.875 13.4875 0.875 9ZM12.0083 7.48833C12.0583 7.42171 12.0945 7.34576 12.1147 7.26496C12.135 7.18415 12.1388 7.10012 12.1261 7.0178C12.1134 6.93547 12.0844 6.85652 12.0407 6.78558C11.9971 6.71464 11.9396 6.65315 11.8719 6.60471C11.8041 6.55627 11.7273 6.52187 11.6461 6.50352C11.5648 6.48518 11.4807 6.48326 11.3987 6.49789C11.3167 6.51251 11.2385 6.54338 11.1686 6.58868C11.0987 6.63398 11.0385 6.69279 10.9917 6.76167L8.295 10.5367L6.94167 9.18333C6.82319 9.07293 6.66648 9.01283 6.50456 9.01569C6.34265 9.01854 6.18816 9.08414 6.07365 9.19865C5.95914 9.31316 5.89354 9.46765 5.89069 9.62956C5.88783 9.79148 5.94793 9.94819 6.05833 10.0667L7.93333 11.9417C7.99749 12.0058 8.07483 12.0552 8.15999 12.0864C8.24515 12.1176 8.33608 12.1299 8.42647 12.1224C8.51686 12.115 8.60455 12.088 8.68344 12.0432C8.76233 11.9985 8.83054 11.9371 8.88333 11.8633L12.0083 7.48833Z" fill="white"/>
</svg>
